<svg xmlns="http://www.w3.org/2000/svg" xmlns:xlink="http://www.w3.org/1999/xlink" viewBox="0 0 100 78">
<defs><style>.cls-1{isolation:isolate;}.cls-2,.cls-5{fill:#fff;}.cls-2,.cls-3{stroke:#000;stroke-miterlimit:10;}.cls-3{fill:#e20909;}.cls-4{opacity:0.5;mix-blend-mode:screen;}.cls-5{font-size:32.36px;font-family:MyriadPro-Bold, Myriad Pro;font-weight:700;}.cls-6{letter-spacing:0em;}.cls-7{letter-spacing:0em;}.cls-8{letter-spacing:-0.02em;}.cls-9{letter-spacing:-0.03em;}</style></defs>
<g class="cls-1">
  <g id="Calque_2" data-name="Calque 2">
    <g id="Calque_1-2" data-name="Calque 1">
      <path id="path17660" class="cls-2" d="M14.39,9.6A13.89,13.89,0,1,0,28.28,23.49,13.89,13.89,0,0,0,14.39,9.6Zm.14,4.69a8.9,8.9,0,1,1-8.9,8.9A8.89,8.89,0,0,1,14.53,14.29Z"/>
      <path id="path18561" class="cls-2" d="M52.7,9.41A14.08,14.08,0,1,0,66.78,23.49,14.09,14.09,0,0,0,52.7,9.41Zm.14,4.76a9,9,0,1,1-9,9A9,9,0,0,1,52.84,14.17Z"/>
      <rect class="cls-3" x="13.52" y="19.25" width="40.35" height="5.37"/>
      <rect class="cls-3" x="3.8" y="36.33" width="59.78" height="5.13" transform="translate(72.58 5.2) rotate(90)"/>
      <path id="path18555" class="cls-2" d="M33.52,41.82A14.08,14.08,0,1,0,47.6,55.9,14.08,14.08,0,0,0,33.52,41.82Zm.13,4.76a9,9,0,1,1-9,9A9,9,0,0,1,33.65,46.58Z"/>
    </g>
  </g>
</g>
</svg>